<svg width="92" height="27" viewBox="0 0 92 27" fill="none" xmlns="http://www.w3.org/2000/svg">
<path d="M0.448429 12.202L9.6525 1.01178C9.94822 0.653689 10.3179 0.47464 10.6875 0.47464C11.0572 0.47464 11.4268 0.653689 11.7225 1.01178C12.3139 1.72795 12.3139 2.84698 11.7225 3.56316L5.03198 11.7097L26.6191 11.7097C27.4323 11.7097 28.0977 12.5154 28.0977 13.5001C28.0977 14.4848 27.4323 15.2905 26.6191 15.2905L5.03198 15.2905L11.7225 23.437C12.3139 24.1532 12.3139 25.2722 11.7225 25.9884C11.1311 26.7046 10.207 26.7046 9.61555 25.9884L0.411451 14.7982C-0.143012 14.0372 -0.142999 12.8734 0.448429 12.202Z" fill="#FF5722"/>
<rect x="91.6855" y="15.6931" width="88.7142" height="4.47534" rx="2.23767" transform="rotate(180 91.6855 15.6931)" fill="#FF5722"/>
</svg>
