<svg width="53" height="27" viewBox="0 0 53 27" fill="none" xmlns="http://www.w3.org/2000/svg">
<path d="M0.448429 14.7981L9.6525 25.9884C9.94822 26.3465 10.3179 26.5255 10.6875 26.5255C11.0572 26.5255 11.4268 26.3465 11.7225 25.9884C12.3139 25.2722 12.3139 24.1532 11.7225 23.437L5.03198 15.2905H26.6191C27.4323 15.2905 28.0977 14.4848 28.0977 13.5001C28.0977 12.5153 27.4323 11.7096 26.6191 11.7096H5.03198L11.7225 3.56312C12.3139 2.84695 12.3139 1.72792 11.7225 1.01174C11.1311 0.295565 10.207 0.295565 9.61555 1.01174L0.411451 12.202C-0.143013 12.9629 -0.142998 14.1267 0.448429 14.7981Z" fill="#9A9A9A"/>
<rect width="50" height="4.00159" rx="2.00079" transform="matrix(-1 0 0 1 52.6855 11.5194)" fill="#9A9A9A"/>
</svg>
