<svg width="92" height="27" viewBox="0 0 92 27" fill="none" xmlns="http://www.w3.org/2000/svg">
<path d="M91.2371 14.7981L82.033 25.9884C81.7373 26.3465 81.3677 26.5255 80.998 26.5255C80.6284 26.5255 80.2587 26.3465 79.963 25.9884C79.3716 25.2722 79.3716 24.1532 79.963 23.437L86.6536 15.2905H65.0665C64.2532 15.2905 63.5879 14.4848 63.5879 13.5001C63.5879 12.5153 64.2532 11.7096 65.0665 11.7096H86.6536L79.963 3.56312C79.3716 2.84695 79.3716 1.72792 79.963 1.01174C80.5545 0.295565 81.4786 0.295565 82.07 1.01174L91.2741 12.202C91.8286 12.9629 91.8285 14.1267 91.2371 14.7981Z" fill="#FF5722"/>
<rect y="11.307" width="88.7142" height="4.47534" rx="2.23767" fill="#FF5722"/>
</svg>
