<svg width="53" height="27" viewBox="0 0 53 27" fill="none" xmlns="http://www.w3.org/2000/svg">
<path d="M52.2371 12.202L43.033 1.01175C42.7373 0.653658 42.3677 0.474609 41.998 0.474609C41.6284 0.474609 41.2587 0.653658 40.963 1.01175C40.3716 1.72792 40.3716 2.84695 40.963 3.56313L47.6536 11.7096H26.0665C25.2532 11.7096 24.5879 12.5153 24.5879 13.5001C24.5879 14.4848 25.2532 15.2905 26.0665 15.2905H47.6536L40.963 23.437C40.3716 24.1532 40.3716 25.2722 40.963 25.9884C41.5545 26.7046 42.4786 26.7046 43.07 25.9884L52.2741 14.7981C52.8286 14.0372 52.8285 12.8734 52.2371 12.202Z" fill="#9A9A9A"/>
<rect width="50" height="4.00159" rx="2.00079" transform="matrix(1 0 0 -1 0 15.4807)" fill="#9A9A9A"/>
</svg>
